<svg width="39" height="18" viewBox="0 0 39 18" fill="none" xmlns="http://www.w3.org/2000/svg">
<mask id="mask0_18_269" style="mask-type:alpha" maskUnits="userSpaceOnUse" x="0" y="3" width="12" height="12">
<circle cx="6" cy="9" r="6" fill="#D9D9D9"/>
</mask>
<g mask="url(#mask0_18_269)">
<path d="M-6.94702 13.3164H22.7372V20.6848H-6.94702V13.3164Z" fill="#FFCE00"/>
<path d="M-6.94702 -1.4209H22.7372V5.94752H-6.94702V-1.4209Z" fill="black"/>
<path d="M-6.94702 5.94727H22.7372V13.3157H-6.94702V5.94727Z" fill="#DD0000"/>
<path d="M-2.52649 3H14.4359V15.6316H-2.52649V3Z" fill="#012169"/>
<path d="M-0.538707 3L5.92821 7.76316L12.3686 3H14.4359V4.63158L8.07502 9.3421L14.4359 14.0263V15.6316H12.3156L5.95471 10.9211L-0.379685 15.6316H-2.52649V14.0526L3.80791 9.36842L-2.52649 4.68421V3H-0.538707Z" fill="white"/>
<path d="M8.71111 10.3947L14.4359 14.5789V15.6316L7.2534 10.3947H8.71111ZM3.83441 10.9211L3.99344 11.8421L-1.09529 15.6316H-2.52649L3.83441 10.9211ZM14.4359 3V3.07895L7.83648 8.02632L7.88949 6.86842L13.1107 3H14.4359ZM-2.52649 3L3.80791 7.63158H2.21768L-2.52649 4.10526V3Z" fill="#C8102E"/>
<path d="M3.86092 3V15.6316H8.10152V3H3.86092ZM-2.52649 7.21053V11.4211H14.4359V7.21053H-2.52649Z" fill="white"/>
<path d="M-2.52649 8.07895V10.6053H14.4359V8.07895H-2.52649ZM4.70904 3V15.6316H7.2534V3H4.70904Z" fill="#C8102E"/>
</g>
<path d="M19.35 14V4.16H25.02V5.21H20.595V8.3H24.33V9.365H20.595V12.935H25.17V14H19.35ZM27.3402 14V6.71H28.3602L28.4652 7.76H28.5102C28.8602 7.41 29.2302 7.12 29.6202 6.89C30.0102 6.65 30.4552 6.53 30.9552 6.53C31.7252 6.53 32.2852 6.775 32.6352 7.265C32.9952 7.745 33.1752 8.45 33.1752 9.38V14H31.9452V9.545C31.9452 8.865 31.8352 8.37 31.6152 8.06C31.3952 7.75 31.0452 7.595 30.5652 7.595C30.1952 7.595 29.8602 7.69 29.5602 7.88C29.2702 8.07 28.9402 8.35 28.5702 8.72V14H27.3402ZM36.3883 14.18C36.1383 14.18 35.9233 14.095 35.7433 13.925C35.5733 13.745 35.4883 13.52 35.4883 13.25C35.4883 12.96 35.5733 12.73 35.7433 12.56C35.9233 12.38 36.1383 12.29 36.3883 12.29C36.6283 12.29 36.8333 12.38 37.0033 12.56C37.1833 12.73 37.2733 12.96 37.2733 13.25C37.2733 13.52 37.1833 13.745 37.0033 13.925C36.8333 14.095 36.6283 14.18 36.3883 14.18Z" fill="#06255B"/>
<path d="M18 15.125H38.2483V15.875H18V15.125Z" fill="#06255B"/>
</svg>
