<svg width="34" height="18" viewBox="0 0 34 18" fill="none" xmlns="http://www.w3.org/2000/svg">
<mask id="mask0_18_283" style="mask-type:alpha" maskUnits="userSpaceOnUse" x="0" y="3" width="12" height="12">
<circle cx="6" cy="9" r="6" fill="#D9D9D9"/>
</mask>
<g mask="url(#mask0_18_283)">
<path d="M-6.94702 13.3164H22.7372V20.6848H-6.94702V13.3164Z" fill="#FFCE00"/>
<path d="M-6.94702 -1.4209H22.7372V5.94752H-6.94702V-1.4209Z" fill="black"/>
<path d="M-6.94702 5.94727H22.7372V13.3157H-6.94702V5.94727Z" fill="#DD0000"/>
<path fill-rule="evenodd" clip-rule="evenodd" d="M-2.52649 3H14.7968V15.6316H-2.52649V3Z" fill="white"/>
<path fill-rule="evenodd" clip-rule="evenodd" d="M-2.52649 3H3.24704V15.6316H-2.52649V3Z" fill="#002654"/>
<path fill-rule="evenodd" clip-rule="evenodd" d="M9.02234 3H14.7959V15.6316H9.02234V3Z" fill="#CE1126"/>
</g>
<path opacity="0.4" d="M19.35 14V4.16H25.02V5.21H20.595V8.54H24.345V9.59H20.595V14H19.35ZM26.5491 14V6.71H27.5691L27.6741 8.03H27.7191C27.9691 7.57 28.2691 7.205 28.6191 6.935C28.9791 6.665 29.3691 6.53 29.7891 6.53C30.0791 6.53 30.3391 6.58 30.5691 6.68L30.3291 7.76C30.2091 7.72 30.0991 7.69 29.9991 7.67C29.8991 7.65 29.7741 7.64 29.6241 7.64C29.3141 7.64 28.9891 7.765 28.6491 8.015C28.3191 8.265 28.0291 8.7 27.7791 9.32V14H26.5491ZM31.7447 14.18C31.4947 14.18 31.2797 14.095 31.0997 13.925C30.9297 13.745 30.8447 13.52 30.8447 13.25C30.8447 12.96 30.9297 12.73 31.0997 12.56C31.2797 12.38 31.4947 12.29 31.7447 12.29C31.9847 12.29 32.1897 12.38 32.3597 12.56C32.5397 12.73 32.6297 12.96 32.6297 13.25C32.6297 13.52 32.5397 13.745 32.3597 13.925C32.1897 14.095 31.9847 14.18 31.7447 14.18Z" fill="#06255B"/>
</svg>
