<svg width="39" height="18" viewBox="0 0 39 18" fill="none" xmlns="http://www.w3.org/2000/svg">
<mask id="mask0_18_261" style="mask-type:alpha" maskUnits="userSpaceOnUse" x="0" y="3" width="12" height="12">
<circle cx="6" cy="9" r="6" fill="#D9D9D9"/>
</mask>
<g mask="url(#mask0_18_261)">
<path d="M-3.53613 11.4214H13.426V15.6319H-3.53613V11.4214Z" fill="#FFCE00"/>
<path d="M-3.53613 3H13.426V7.21047H-3.53613V3Z" fill="black"/>
<path d="M-3.53613 7.21045H13.426V11.4209H-3.53613V7.21045Z" fill="#DD0000"/>
</g>
<path opacity="0.4" d="M19.35 14V4.16H21.81C23.33 4.16 24.485 4.585 25.275 5.435C26.065 6.275 26.46 7.475 26.46 9.035C26.46 10.605 26.065 11.825 25.275 12.695C24.495 13.565 23.36 14 21.87 14H19.35ZM20.595 12.98H21.72C22.87 12.98 23.73 12.635 24.3 11.945C24.88 11.245 25.17 10.275 25.17 9.035C25.17 7.795 24.88 6.845 24.3 6.185C23.73 5.515 22.87 5.18 21.72 5.18H20.595V12.98ZM31.6135 14.18C30.9635 14.18 30.3735 14.03 29.8435 13.73C29.3135 13.42 28.8935 12.98 28.5835 12.41C28.2735 11.84 28.1185 11.16 28.1185 10.37C28.1185 9.57 28.2735 8.885 28.5835 8.315C28.9035 7.745 29.3135 7.305 29.8135 6.995C30.3135 6.685 30.8385 6.53 31.3885 6.53C32.3185 6.53 33.0335 6.84 33.5335 7.46C34.0435 8.08 34.2985 8.91 34.2985 9.95C34.2985 10.08 34.2935 10.21 34.2835 10.34C34.2835 10.46 34.2735 10.565 34.2535 10.655H29.3335C29.3835 11.425 29.6235 12.04 30.0535 12.5C30.4935 12.96 31.0635 13.19 31.7635 13.19C32.1135 13.19 32.4335 13.14 32.7235 13.04C33.0235 12.93 33.3085 12.79 33.5785 12.62L34.0135 13.43C33.7035 13.63 33.3485 13.805 32.9485 13.955C32.5585 14.105 32.1135 14.18 31.6135 14.18ZM29.3185 9.77H33.2185C33.2185 9.03 33.0585 8.47 32.7385 8.09C32.4285 7.7 31.9885 7.505 31.4185 7.505C30.9085 7.505 30.4485 7.705 30.0385 8.105C29.6385 8.495 29.3985 9.05 29.3185 9.77ZM36.9449 14.18C36.6949 14.18 36.4799 14.095 36.2999 13.925C36.1299 13.745 36.0449 13.52 36.0449 13.25C36.0449 12.96 36.1299 12.73 36.2999 12.56C36.4799 12.38 36.6949 12.29 36.9449 12.29C37.1849 12.29 37.3899 12.38 37.5599 12.56C37.7399 12.73 37.8299 12.96 37.8299 13.25C37.8299 13.52 37.7399 13.745 37.5599 13.925C37.3899 14.095 37.1849 14.18 36.9449 14.18Z" fill="#06255B"/>
</svg>
